<svg width="330" height="330" viewBox="0 0 330 330" fill="none" xmlns="http://www.w3.org/2000/svg">
    <path
        d="M314.325 243.581H298.547V259.256H330V196.453H314.325V243.581ZM314.325 149.222H330V165H314.325V149.222ZM0 7.8374V259.256H157.162V243.581H15.675V23.5124H314.325V117.872H330V7.8374H0ZM298.547 165H314.325V180.675H298.547V165Z"
        fill="black" />
    <path
        d="M298.547 133.547H314.325V149.222H298.547V133.547ZM282.872 212.128H251.419V227.803H235.744V243.581H219.966V227.803H204.291V212.128H172.837V180.675H157.162V227.803H172.837V322.162H204.291V306.384H219.966V290.709H235.744V306.384H251.419V322.162H282.872V227.803H298.547V180.675H282.872V212.128ZM298.547 70.7437V39.2905H251.419V54.9655H282.872V70.7437H298.547ZM267.094 133.547H282.872V180.675H267.094V133.547Z"
        fill="black" />
    <path
        d="M251.419 180.675H267.094V196.453H251.419V180.675ZM251.419 117.872H267.094V133.547H251.419V117.872ZM282.872 102.094V133.547H298.547V86.4189H251.419V102.094H282.872ZM204.291 196.453H251.419V212.128H204.291V196.453ZM235.744 70.7439H251.419V86.4189H235.744V70.7439ZM219.966 54.9658H235.744V70.7439H219.966V54.9658ZM204.291 102.094H251.419V117.872H204.291V102.094ZM204.291 70.7439H219.966V86.4189H204.291V70.7439ZM188.616 180.675H204.291V196.453H188.616V180.675ZM188.616 117.872H204.291V133.547H188.616V117.872ZM172.838 133.547H188.616V180.675H172.838V133.547Z"
        fill="black" />
    <path
        d="M172.838 102.094H204.291V86.4189H157.163V133.547H172.838V102.094ZM141.384 165H157.163V180.675H141.384V165ZM141.384 133.547H157.163V149.222H141.384V133.547ZM125.709 149.222H141.384V165H125.709V149.222Z"
        fill="black" />
    <path d="M204.291 54.9655V39.2905H31.4531V227.803H141.384V212.128H47.1281V54.9655H204.291Z" fill="black" />
    <path
        d="M62.9062 133.547H110.034V149.222H62.9062V133.547ZM62.9062 70.7437H110.034V117.872H62.9062V70.7437ZM62.9062 165H110.034V180.675H62.9062V165Z"
        fill="black" />
</svg>