<svg width="482" height="436" viewBox="0 0 482 436" fill="none" xmlns="http://www.w3.org/2000/svg">
    <path
        d="M160.667 218V181.667H120.5V218H160.667ZM214.892 218C218.574 211.036 222.845 204.526 227.705 198.471C232.565 192.415 238.001 186.814 244.013 181.667H200.833V218H214.892ZM202.842 290.667C202.172 287.639 201.757 284.684 201.597 281.801C201.436 278.919 201.349 275.819 201.335 272.5C201.322 269.182 201.409 266.075 201.597 263.181C201.784 260.286 202.199 257.337 202.842 254.333H120.5V290.667H202.842ZM243.51 363.333H80.3334C69.2875 363.333 59.835 359.779 51.9757 352.67C44.1164 345.56 40.1801 337.004 40.1667 327V109C40.1667 99.0084 44.103 90.458 51.9757 83.3487C59.8484 76.2395 69.3009 72.6789 80.3334 72.6667H401.667C412.713 72.6667 422.172 76.2274 430.044 83.3487C437.917 90.4701 441.847 99.0205 441.833 109V184.392C436.143 178.942 429.951 174.025 423.256 169.64C416.562 165.256 409.365 161.393 401.667 158.05V109H80.3334V327H214.892C218.574 333.964 222.758 340.474 227.444 346.529C232.13 352.585 237.485 358.186 243.51 363.333ZM361.5 363.333H321.333L315.308 336.083C311.292 334.57 307.529 332.983 304.022 331.324C300.514 329.665 296.912 327.618 293.217 325.183L264.096 333.358L244.013 302.475L267.108 284.308C266.439 280.372 266.104 276.436 266.104 272.5C266.104 268.564 266.439 264.628 267.108 260.692L244.013 242.525L264.096 211.642L293.217 219.817C296.899 217.395 300.5 215.354 304.022 213.695C307.543 212.035 311.305 210.443 315.308 208.917L321.333 181.667H361.5L367.525 208.917C371.542 210.431 375.391 212.175 379.073 214.149C382.755 216.123 386.269 218.315 389.617 220.725L418.738 211.642L438.821 243.433L415.725 261.6C416.395 265.536 416.729 269.321 416.729 272.954C416.729 276.588 416.395 280.372 415.725 284.308L438.821 302.475L418.738 333.358L389.617 325.183C385.935 327.606 382.34 329.652 378.832 331.324C375.324 332.995 371.555 334.582 367.525 336.083L361.5 363.333ZM341.417 308.833C352.463 308.833 361.922 305.279 369.794 298.17C377.667 291.06 381.597 282.504 381.583 272.5C381.57 262.496 377.64 253.946 369.794 246.849C361.949 239.752 352.489 236.191 341.417 236.167C330.344 236.143 320.892 239.703 313.059 246.849C305.227 253.994 301.29 262.545 301.25 272.5C301.21 282.455 305.146 291.012 313.059 298.17C320.972 305.327 330.424 308.882 341.417 308.833Z"
        fill="currentColor" />
</svg>