<svg width="1em" height="1em" viewBox="0 0 33 33" fill="none" xmlns="http://www.w3.org/2000/svg">
    <path fill-rule="evenodd" clip-rule="evenodd"
        d="M22.8389 6.861C22.5541 7.14593 22.3362 7.49057 22.2008 7.87001C22.2008 7.87001 21.7331 9.29417 20.1249 7.69019L15.7114 3.27747L12.11 6.87885C10.4957 8.49314 11.9245 8.96281 11.9245 8.96281C12.3042 9.09713 12.649 9.31489 12.9335 9.60006C13.9886 10.6548 13.9886 12.3657 12.9335 13.4205L12.9331 13.4212C11.8776 14.4759 10.1674 14.4759 9.11189 13.4212C8.81708 13.126 8.60451 12.7802 8.47464 12.4115C8.47464 12.4115 8.00497 10.9831 6.39036 12.5974L2.70435 16.2837L7.11139 20.69C8.72569 22.3043 7.29689 22.7743 7.29689 22.7743C6.91699 22.9087 6.57208 23.1266 6.28755 23.4119C5.23278 24.4674 5.23278 26.1773 6.28755 27.2324H6.28787C7.34297 28.2879 9.05401 28.2886 10.1083 27.2324C10.394 26.9485 10.6119 26.6039 10.746 26.2241C10.746 26.2241 11.2156 24.7957 12.8303 26.41L16.5 30.0801V16.9519H29.3862L25.8312 13.3973C24.228 11.7875 25.6526 11.3194 25.6526 11.3194C26.0323 11.1856 26.3771 10.9679 26.6612 10.6825C27.7167 9.62706 27.7167 7.9168 26.6612 6.86138H26.6597C25.605 5.80551 23.8951 5.80551 22.8389 6.861ZM17.1973 30.7774L17.1218 30.7019H17.2728L17.1973 30.7774ZM28.875 21.0769V18.3269H17.875V21.0769H28.875ZM28.875 25.2019V22.4519H17.875V25.2019H28.875ZM28.875 26.5769V29.3269H17.875V26.5769H28.875Z"
        fill="currentColor" />
</svg>