<svg width="0.8em" height="1em" viewBox="0 0 25 31" fill="none" xmlns="http://www.w3.org/2000/svg">
    <path
        d="M12.5 31C8.88021 30.0958 5.89167 28.0354 3.53438 24.8186C1.17708 21.6018 -0.00104098 18.0306 6.9015e-07 14.105V4.65L12.5 0L25 4.65V14.105C25 18.0317 23.8219 21.6034 21.4656 24.8202C19.1094 28.0369 16.1208 30.0969 12.5 31ZM9.375 21.7H15.625C16.0677 21.7 16.4391 21.5512 16.7391 21.2536C17.0391 20.956 17.1885 20.5881 17.1875 20.15V15.5C17.1875 15.0608 17.0375 14.693 16.7375 14.3964C16.4375 14.0998 16.0667 13.951 15.625 13.95V12.4C15.625 11.5475 15.3193 10.818 14.7078 10.2114C14.0964 9.60483 13.3604 9.30103 12.5 9.3C11.6396 9.29897 10.9042 9.60277 10.2938 10.2114C9.68333 10.82 9.37708 11.5496 9.375 12.4V13.95C8.93229 13.95 8.56146 14.0988 8.2625 14.3964C7.96354 14.694 7.81354 15.0619 7.8125 15.5V20.15C7.8125 20.5892 7.9625 20.9576 8.2625 21.2551C8.5625 21.5527 8.93333 21.701 9.375 21.7ZM10.9375 13.95V12.4C10.9375 11.9608 11.0875 11.593 11.3875 11.2964C11.6875 10.9998 12.0583 10.851 12.5 10.85C12.9417 10.849 13.313 10.9978 13.6141 11.2964C13.9151 11.595 14.0646 11.9629 14.0625 12.4V13.95H10.9375Z"
        fill="black" />
</svg>