<svg width="1em" height="1em" viewBox="0 0 30 30" fill="none" xmlns="http://www.w3.org/2000/svg">
    <path fill-rule="evenodd" clip-rule="evenodd"
        d="M8.62082 16.7286H9.06677L9.09752 16.7704C9.9279 16.7704 10.5122 16.7704 11.0966 16.3522C11.6502 15.9201 11.7578 15.3485 11.8808 14.6794L12.0192 13.8987L12.1699 13.8206C12.3114 13.7491 12.4508 13.6729 12.5882 13.592L13.3878 13.8569C14.049 14.0939 14.6795 14.3169 15.4484 14.0939C16.1173 13.8736 16.4264 13.408 16.8339 12.7918L16.8492 12.7695L17.1568 12.2955C17.5105 11.7379 17.818 11.25 17.6796 10.6645C17.5566 10.0232 17.0953 9.67472 16.4494 9.20074L15.7575 8.68495V8.09944L16.4802 7.5697L16.4986 7.55576C17.0891 7.11664 17.5566 6.76812 17.6627 6.17565C17.8165 5.53857 17.4966 5.0381 17.0999 4.41636L17.0937 4.4052L16.8477 4.02881C16.4479 3.40149 16.125 2.91357 15.433 2.69052C14.7564 2.48141 14.1567 2.67658 13.4186 2.92751L12.6036 3.19238C12.419 3.08085 12.2191 2.98327 12.0208 2.88569L11.8824 2.10502C11.7593 1.42193 11.6517 0.850372 11.0827 0.418216C10.5292 8.3092e-08 9.89868 0 9.09906 0H8.65312C7.83812 0 7.2384 8.3092e-08 6.65406 0.418216C6.10048 0.836431 5.99283 1.39405 5.86982 2.09108L5.71604 2.87175C5.51614 2.96933 5.31623 3.06691 5.1317 3.17844L4.3167 2.89963H4.31209C3.56014 2.6487 2.97734 2.45353 2.28536 2.66264C1.59337 2.88569 1.27045 3.37361 0.870638 4.00093L0.578469 4.44703C0.209412 5.01859 -0.0981348 5.52045 0.0402614 6.10595C0.16328 6.76115 0.624601 7.10966 1.27045 7.58364L1.96243 8.09944V8.65706L1.22432 9.20074C0.624601 9.6329 0.147903 9.98141 0.0402614 10.5809C-0.113512 11.2221 0.194035 11.71 0.609223 12.3652L0.870638 12.7695L0.889091 12.7974C1.27968 13.3829 1.58876 13.8471 2.30073 14.0799C2.97272 14.2835 3.60166 14.066 4.22751 13.8485L4.28441 13.829L5.09941 13.5502C5.29932 13.6617 5.48384 13.7593 5.68375 13.8569L5.8529 14.7072C5.96054 15.3346 6.06818 15.8922 6.6679 16.3522C7.22149 16.7286 7.80582 16.7286 8.62082 16.7286ZM8.62082 14.6375H8.17488L8.23639 14.6097L8.22563 14.5358C8.21242 14.4391 8.1955 14.3428 8.17488 14.2472L7.91347 12.9229C7.88075 12.7502 7.80005 12.5879 7.67898 12.4513C7.55792 12.3147 7.40047 12.2083 7.22149 12.1422C6.8063 11.9888 6.42186 11.7937 6.03743 11.5288C5.72988 11.3058 5.31469 11.25 4.94564 11.3755L3.5463 11.8494C3.48581 11.8662 3.41456 11.8899 3.33255 11.9205C3.26489 11.9456 3.19416 11.9707 3.13265 11.9902C3.05576 11.8927 2.97887 11.7811 2.90199 11.6557L2.60982 11.2096C2.56369 11.1259 2.51755 11.0562 2.47142 10.9865L2.76359 10.7635L3.94765 9.89916C4.27057 9.66217 4.43972 9.28578 4.36283 8.90939C4.3167 8.71422 4.3167 8.51905 4.3167 8.33782C4.3167 8.1566 4.33208 7.96143 4.36283 7.7802C4.39392 7.59676 4.37201 7.40915 4.29924 7.23567C4.22647 7.0622 4.10533 6.90879 3.94765 6.79043L2.73284 5.91217L2.63596 5.84247C2.57137 5.79507 2.50679 5.74907 2.45451 5.70307L2.50064 5.63197C2.53857 5.57156 2.5847 5.50186 2.63903 5.42286L2.88507 5.04647C2.92505 4.97677 2.97734 4.8987 3.02501 4.82621L3.10189 4.7119L3.31718 4.7816C3.38894 4.80669 3.4607 4.82993 3.53246 4.8513L4.91642 5.31134C5.2701 5.4368 5.68529 5.38104 6.00821 5.15799C6.39265 4.89312 6.77708 4.69796 7.17689 4.55855C7.54595 4.41915 7.80736 4.12639 7.88425 3.76394L8.16104 2.35595C8.16719 2.31134 8.17437 2.26952 8.18257 2.23048C8.19547 2.18012 8.20319 2.12879 8.20564 2.07714H9.54347C9.55269 2.14126 9.56653 2.21654 9.58037 2.28485L9.60498 2.42565L9.85101 3.75C9.9279 4.11245 10.1893 4.4052 10.5737 4.54461C11.0043 4.69796 11.3887 4.90706 11.7271 5.14405C12.0346 5.3671 12.4652 5.42286 12.8342 5.2974L14.2182 4.83736C14.3566 4.79554 14.5257 4.73978 14.6487 4.69796L14.6872 4.75929C14.741 4.84433 14.8025 4.94331 14.864 5.03253L15.1408 5.46468C15.2023 5.56227 15.2485 5.63197 15.2946 5.70167L15.167 5.79507L14.987 5.92472L13.8184 6.78903C13.5108 7.01208 13.357 7.38848 13.4032 7.73699L13.4201 7.92379C13.4355 8.0632 13.4509 8.20678 13.4509 8.35037C13.4509 8.53857 13.4247 8.71283 13.3986 8.90799L13.3878 8.97769C13.3417 9.34015 13.4954 9.68866 13.803 9.91171L15.0024 10.8039L15.007 10.8081L15.2638 10.9991L15.2177 11.0702C15.1798 11.1306 15.1336 11.2003 15.0793 11.2793L14.8179 11.6835V11.6849C14.741 11.7965 14.6641 11.9066 14.6026 12.0028C14.4488 11.961 14.2797 11.9052 14.172 11.8634L12.7881 11.4033C12.6059 11.3477 12.4116 11.3326 12.2216 11.3593C12.0315 11.386 11.8514 11.4537 11.6963 11.5567C11.3272 11.8076 10.9428 12.0167 10.5122 12.1701C10.1432 12.3095 9.88177 12.6022 9.82026 12.9647L9.57422 14.289L9.56346 14.3643C9.55155 14.4561 9.53461 14.5473 9.51271 14.6375H8.62082ZM20.9227 29.9721H21.3687L21.3994 30C22.2298 30 22.8141 30 23.3985 29.5818C23.952 29.1496 24.0597 28.5781 24.1827 27.9089L24.3211 27.1283L24.4718 27.0502C24.6102 26.9777 24.7547 26.9038 24.8901 26.8216L25.6897 27.0864C26.3509 27.3234 26.9814 27.5465 27.7503 27.3234C28.4207 27.1032 28.7283 26.6375 29.1358 26.0214L29.1511 25.9991L29.4587 25.5251L29.4802 25.4888C29.8093 24.9452 30.1014 24.467 29.9661 23.8801C29.8431 23.2388 29.3664 22.8764 28.7359 22.4164L28.044 21.9145V21.3429L28.7359 20.8271L28.7544 20.8132C29.3603 20.3601 29.8431 19.9991 29.9492 19.4052C30.0876 18.7639 29.7954 18.276 29.3803 17.6208L29.1188 17.2165L29.1019 17.1901C28.7098 16.6046 28.4007 16.1403 27.6903 15.9075C26.9829 15.6984 26.3525 15.9215 25.7066 16.1585L24.8916 16.4233C24.7071 16.3118 24.5072 16.2142 24.3073 16.1166L24.1689 15.336C24.0458 14.6668 23.9382 14.0953 23.3539 13.6352C22.8003 13.2309 22.2159 13.2309 21.3856 13.2309H20.9396C20.1246 13.2309 19.5403 13.2309 18.9252 13.6492C18.387 14.0813 18.2793 14.625 18.1563 15.322L18.0025 16.1166C17.8026 16.2142 17.6027 16.3118 17.4182 16.4233L16.6186 16.1585C15.9574 15.9215 15.3269 15.6984 14.558 15.9215C13.8876 16.1417 13.58 16.6073 13.1725 17.2235L13.1571 17.2444L12.8496 17.7184L12.8281 17.756C12.499 18.2983 12.2068 18.7779 12.3421 19.3634C12.4652 20.0046 12.9419 20.3671 13.5723 20.8271L14.2643 21.329V21.8866L13.557 22.4024L13.5385 22.4164C12.9326 22.8708 12.4498 23.2319 12.3437 23.8243C12.2053 24.4656 12.4975 24.9535 12.9126 25.6087L13.1741 26.013L13.191 26.0409C13.5831 26.6264 13.8922 27.0906 14.6026 27.3234C15.2746 27.527 15.9035 27.3095 16.5309 27.092L16.5878 27.0725L17.4028 26.7937C17.6027 26.9052 17.7873 27.0028 17.9872 27.1004L18.1563 27.9507C18.264 28.5781 18.3716 29.1357 18.9713 29.5957C19.5249 29.9721 20.1092 29.9721 20.9242 29.9721M20.4937 27.881H21.8161C21.8447 27.7662 21.8653 27.6498 21.8776 27.5325L22.1237 26.2082C22.1852 25.8457 22.4466 25.553 22.8157 25.4136C23.2462 25.2602 23.6307 25.0511 23.9997 24.8002C24.3073 24.5771 24.7225 24.5353 25.0915 24.6468L26.4755 25.1069C26.5831 25.1487 26.7523 25.2045 26.906 25.2463C26.9675 25.1487 27.0444 25.0372 27.1213 24.9257L27.3827 24.5214C27.4371 24.4433 27.4832 24.3741 27.5211 24.3137L27.5488 24.2718L27.5673 24.244L27.5273 24.2119C27.4406 24.1456 27.3519 24.0814 27.2613 24.0195L26.108 23.1691C25.8004 22.9461 25.6466 22.5976 25.6774 22.2351L25.6897 22.1334C25.7158 21.941 25.7389 21.7723 25.7389 21.5939C25.7389 21.3848 25.7081 21.1756 25.6774 20.9805C25.6543 20.8057 25.6802 20.6285 25.7528 20.4652C25.8254 20.3019 25.9422 20.1579 26.0926 20.0465L27.2613 19.1822L27.415 19.0706L27.5688 18.9591C27.5227 18.8894 27.4765 18.8197 27.4304 18.7361L27.1382 18.3039C27.0613 18.1784 26.9845 18.0669 26.9076 17.9693L26.7061 18.039C26.6262 18.0669 26.5493 18.0948 26.4908 18.1087L25.0915 18.5827C24.7225 18.7082 24.2919 18.6524 23.9843 18.4294C23.646 18.1924 23.2616 17.9833 22.8157 17.816C22.6347 17.7486 22.476 17.6401 22.3548 17.5009C22.2335 17.3617 22.154 17.1966 22.1237 17.0214L21.8776 15.697L21.853 15.5562L21.8161 15.3485H20.4783L20.4322 15.6273L20.1554 17.0353C20.0939 17.3838 19.8171 17.6766 19.4634 17.816C19.0328 17.9693 18.6484 18.1784 18.2793 18.4294C18.1242 18.5324 17.9441 18.6001 17.7541 18.6268C17.5641 18.6535 17.3698 18.6384 17.1875 18.5827L15.8036 18.1227C15.6959 18.0809 15.5268 18.0251 15.373 17.9833C15.3115 18.0809 15.2362 18.1924 15.1593 18.3025V18.3039L14.8979 18.7082L14.7595 18.9173L14.7133 18.987L14.7518 19.0177C14.8348 19.0804 14.9271 19.1515 15.0209 19.21L16.2049 20.0743C16.5279 20.3113 16.697 20.7017 16.6201 21.0781C16.5894 21.2593 16.574 21.4405 16.574 21.6357C16.574 21.8309 16.574 22.0121 16.6201 22.1933C16.697 22.5697 16.5432 22.9461 16.2049 23.197L15.0209 24.0613L14.8748 24.1729H14.8733L14.7272 24.2844C14.7733 24.3541 14.8194 24.4238 14.8656 24.5074L15.1577 24.9396C15.2346 25.0651 15.3115 25.1766 15.3884 25.2742C15.454 25.2556 15.5217 25.2328 15.5914 25.2059C15.6698 25.178 15.7452 25.1501 15.8051 25.1362L17.2045 24.6622C17.5735 24.5367 17.9887 24.5925 18.2963 24.8155C18.6807 25.0804 19.0651 25.2756 19.4803 25.4289C19.8494 25.5683 20.1108 25.8611 20.1723 26.2096L20.4337 27.5339C20.4552 27.6408 20.4716 27.737 20.4829 27.8225L20.4937 27.881ZM8.83765 10.4554C7.56133 10.4554 6.53104 9.52138 6.53104 8.36431C6.53104 7.20725 7.56133 6.27323 8.83765 6.27323C10.114 6.27323 11.1442 7.20725 11.1442 8.36431C11.1442 9.52138 10.114 10.4554 8.83765 10.4554ZM18.8329 21.6078C18.8329 22.7649 19.8632 23.6989 21.1395 23.6989C22.4158 23.6989 23.4461 22.7649 23.4461 21.6078C23.4461 20.4507 22.4158 19.5167 21.1395 19.5167C19.8632 19.5167 18.8329 20.4507 18.8329 21.6078Z"
        fill="black" />
</svg>