<svg width="1em" height="1em" viewBox="0 0 29 29" fill="none" xmlns="http://www.w3.org/2000/svg">
    <path
        d="M27.55 23.2012H24.65V18.8521C24.65 18.4676 24.4972 18.0989 24.2253 17.827C23.9534 17.5551 23.5846 17.4024 23.2 17.4024H15.95V13.4737L17.5885 14.329C17.8274 14.454 18.0965 14.5099 18.3655 14.4904C18.6344 14.4709 18.8926 14.3768 19.1111 14.2186C19.3295 14.0605 19.4994 13.8446 19.6019 13.5952C19.7043 13.3458 19.7352 13.0728 19.691 12.8068L19.111 9.37103L21.605 6.92104C21.7939 6.73661 21.9288 6.50412 21.9953 6.24864C22.0617 5.99316 22.0571 5.72439 21.982 5.47133C21.898 5.21369 21.7434 4.98475 21.5358 4.8105C21.3282 4.63625 21.0759 4.52367 20.8075 4.48554L17.4 3.94915L15.805 0.817791C15.6863 0.572689 15.5009 0.365981 15.2701 0.221346C15.0393 0.0767113 14.7724 0 14.5 0C14.2276 0 13.9607 0.0767113 13.7299 0.221346C13.4991 0.365981 13.3137 0.572689 13.195 0.817791L11.6 3.94915L8.1345 4.45654C7.86614 4.49468 7.61384 4.60726 7.40624 4.78151C7.19864 4.95575 7.04404 5.18469 6.96 5.44234C6.88487 5.6954 6.88028 5.96417 6.94672 6.21964C7.01315 6.47512 7.1481 6.70762 7.337 6.89204L9.889 9.37103L9.309 12.8068C9.2648 13.0728 9.29565 13.3458 9.3981 13.5952C9.50055 13.8446 9.67053 14.0605 9.88895 14.2186C10.1074 14.3768 10.3656 14.4709 10.6345 14.4904C10.9035 14.5099 11.1726 14.454 11.4115 14.329L13.05 13.4737V17.4024H5.8C5.41544 17.4024 5.04662 17.5551 4.7747 17.827C4.50277 18.0989 4.35 18.4676 4.35 18.8521V23.2012H1.45C1.06544 23.2012 0.696623 23.3539 0.424695 23.6258C0.152767 23.8977 0 24.2664 0 24.6509V27.5503C0 27.9348 0.152767 28.3035 0.424695 28.5754C0.696623 28.8473 1.06544 29 1.45 29C1.83456 29 2.20338 28.8473 2.47531 28.5754C2.74723 28.3035 2.9 27.9348 2.9 27.5503V26.1006H8.7V27.5503C8.7 27.9348 8.85277 28.3035 9.1247 28.5754C9.39662 28.8473 9.76544 29 10.15 29C10.5346 29 10.9034 28.8473 11.1753 28.5754C11.4472 28.3035 11.6 27.9348 11.6 27.5503V24.6509C11.6 24.2664 11.4472 23.8977 11.1753 23.6258C10.9034 23.3539 10.5346 23.2012 10.15 23.2012H7.25V20.3018H21.75V23.2012H18.85C18.4654 23.2012 18.0966 23.3539 17.8247 23.6258C17.5528 23.8977 17.4 24.2664 17.4 24.6509V27.5503C17.4 27.9348 17.5528 28.3035 17.8247 28.5754C18.0966 28.8473 18.4654 29 18.85 29C19.2346 29 19.6034 28.8473 19.8753 28.5754C20.1472 28.3035 20.3 27.9348 20.3 27.5503V26.1006H26.1V27.5503C26.1 27.9348 26.2528 28.3035 26.5247 28.5754C26.7966 28.8473 27.1654 29 27.55 29C27.9346 29 28.3034 28.8473 28.5753 28.5754C28.8472 28.3035 29 27.9348 29 27.5503V24.6509C29 24.2664 28.8472 23.8977 28.5753 23.6258C28.3034 23.3539 27.9346 23.2012 27.55 23.2012ZM14.5 9.61748C14.262 9.61867 14.0279 9.67842 13.8185 9.79145L12.6585 10.4003L12.876 9.09559C12.914 8.8648 12.8957 8.62824 12.8225 8.40609C12.7492 8.18394 12.6233 7.98281 12.4555 7.81985L11.513 6.89204L12.818 6.70358C13.0515 6.6724 13.2738 6.58482 13.4658 6.44842C13.6578 6.31202 13.8137 6.1309 13.92 5.92074L14.5 4.73199L15.08 5.92074C15.1863 6.1309 15.3422 6.31202 15.5342 6.44842C15.7262 6.58482 15.9485 6.6724 16.182 6.70358L17.487 6.89204L16.5445 7.81985C16.3767 7.98281 16.2508 8.18394 16.1776 8.40609C16.1043 8.62824 16.086 8.8648 16.124 9.09559L16.3415 10.4003L15.1815 9.79145C14.9721 9.67842 14.738 9.61867 14.5 9.61748Z"
        fill="black" />
</svg>