<svg width="1em" height="1em" viewBox="0 0 37 37" fill="none" xmlns="http://www.w3.org/2000/svg">
    <path
        d="M16.9583 32.75C15.725 31.7736 14.3889 31.0156 12.95 30.476C11.5111 29.9365 10.0208 29.6667 8.47917 29.6667C7.4 29.6667 6.34036 29.808 5.30025 30.0906C4.26014 30.3733 3.26422 30.7715 2.3125 31.2854C1.77292 31.5681 1.25286 31.5552 0.752333 31.2469C0.251806 30.9385 0.00102778 30.4889 0 29.8979V11.3208C0 11.0382 0.0709167 10.7684 0.21275 10.5115C0.354583 10.2545 0.566306 10.0618 0.847917 9.93333C2.02986 9.31667 3.26319 8.85417 4.54792 8.54583C5.83264 8.2375 7.14306 8.08333 8.47917 8.08333C10.3806 8.08333 11.9993 8.30174 13.3354 8.73854C14.6715 9.17535 16.1104 9.8434 17.6521 10.7427C17.9347 10.8969 18.147 11.0767 18.2888 11.2823C18.4306 11.4878 18.501 11.7576 18.5 12.0917V28.2021C19.6306 27.6625 20.7678 27.2576 21.9117 26.9872C23.0556 26.7169 24.2309 26.5823 25.4375 26.5833C26.3625 26.5833 27.2685 26.6604 28.1555 26.8146C29.0424 26.9687 29.9351 27.2 30.8333 27.5083V8.96979C31.2188 9.09826 31.598 9.23958 31.9711 9.39375C32.3442 9.54792 32.7101 9.72778 33.0688 9.93333C33.3514 10.0618 33.5636 10.2545 33.7055 10.5115C33.8473 10.7684 33.9177 11.0382 33.9167 11.3208V29.8979C33.9167 30.4889 33.6659 30.9385 33.1643 31.2469C32.6628 31.5552 32.1427 31.5681 31.6042 31.2854C30.6535 30.7715 29.6581 30.3733 28.618 30.0906C27.5778 29.808 26.5177 29.6667 25.4375 29.6667C23.8958 29.6667 22.4056 29.9365 20.9667 30.476C19.5278 31.0156 18.1917 31.7736 16.9583 32.75ZM22.3542 23.5V6.54167L26.9792 5V21.9583L22.3542 23.5Z"
        fill="currentColor" />
</svg>