<svg width="1em" height="0.96em" viewBox="0 0 30 29" fill="none" xmlns="http://www.w3.org/2000/svg">
    <path
        d="M4.59936 13.3124L10.4447 19.1577C10.7213 19.4343 10.8596 19.7862 10.8596 20.2137C10.8596 20.6411 10.7213 20.993 10.4447 21.2696C10.1682 21.5461 9.81619 21.6844 9.38879 21.6844C8.96138 21.6844 8.60941 21.5461 8.33285 21.2696L1.39384 14.3306C1.24299 14.1797 1.13589 14.0163 1.07253 13.8403C1.00917 13.6643 0.978502 13.4758 0.980513 13.2746C0.982524 13.0735 1.0142 12.8849 1.07555 12.709C1.13689 12.533 1.24349 12.3696 1.39535 12.2187L5.73223 7.88182L0.452544 2.60214C0.150848 2.30044 0 1.94243 0 1.5281C0 1.11377 0.150848 0.755251 0.452544 0.452549C0.754241 0.149847 1.11276 -0.00100066 1.52809 4.99497e-06C1.94343 0.00101065 2.30144 0.151859 2.60213 0.452549L28.2463 26.0967C28.548 26.3984 28.6989 26.7504 28.6989 27.1527C28.6989 27.5549 28.548 27.9069 28.2463 28.2086C27.9446 28.5103 27.5866 28.6611 27.1723 28.6611C26.7579 28.6611 26.3994 28.5103 26.0967 28.2086L7.88031 10.0314L4.59936 13.3124ZM24.0588 17.5738C23.7571 17.2721 23.6062 16.9141 23.6062 16.4998C23.6062 16.0854 23.7571 15.7269 24.0588 15.4242L26.2461 13.2369L20.4007 7.39156C20.1241 7.11501 19.9859 6.76303 19.9859 6.33563C19.9859 5.90822 20.1241 5.55624 20.4007 5.27969C20.6773 5.00313 21.0292 4.86486 21.4566 4.86486C21.884 4.86486 22.236 5.00313 22.5126 5.27969L29.4516 12.2187C29.6024 12.3696 29.7095 12.533 29.7729 12.709C29.8363 12.8849 29.8674 13.0735 29.8664 13.2746C29.8654 13.4758 29.8342 13.6643 29.7729 13.8403C29.7115 14.0163 29.6044 14.1797 29.4516 14.3306L26.1706 17.6115C25.8689 17.9132 25.517 18.058 25.1147 18.046C24.7124 18.0339 24.3605 17.8765 24.0588 17.5738Z"
        fill="black" />
</svg>